<?xml version="1.0" standalone="no"?>
<!DOCTYPE svg PUBLIC "-//W3C//DTD SVG 20010904//EN"
 "http://www.w3.org/TR/2001/REC-SVG-20010904/DTD/svg10.dtd">
<svg version="1.0" xmlns="http://www.w3.org/2000/svg"
 width="1504.000000pt" height="1536.000000pt" viewBox="0 0 1504.000000 1536.000000"
 preserveAspectRatio="xMidYMid meet">

<g transform="translate(0.000000,1536.000000) scale(0.100000,-0.100000)"
fill="#000000" stroke="none">
<path d="M4089 10434 c-223 -25 -456 -90 -687 -191 -435 -188 -813 -506 -1085
-911 -80 -119 -216 -380 -263 -507 -67 -177 -129 -453 -153 -677 -35 -322 23
-751 149 -1098 47 -130 170 -372 251 -495 202 -307 432 -537 738 -740 282
-187 549 -292 943 -372 128 -26 145 -28 438 -27 l305 0 175 37 c352 75 634
191 908 374 269 180 491 397 685 671 l37 52 0 1309 0 1309 30 11 c17 5 30 17
30 25 0 17 -136 217 -219 321 -219 276 -578 555 -898 698 -126 57 -153 67
-263 104 -163 53 -336 91 -494 108 -174 18 -466 18 -627 -1z m-651 -530 l52
-7 0 -68 0 -69 -88 0 -89 0 -2 65 c-1 36 1 70 4 75 7 11 47 13 123 4z m-158
-289 l0 -105 -125 0 -125 0 0 105 0 105 125 0 125 0 0 -105z m372 -270 l3
-145 -172 0 -171 0 -1 145 0 145 169 0 169 0 3 -145z m356 -174 l232 -1 -2
-236 -3 -236 -282 -1 -283 -2 0 236 c0 130 3 239 7 243 4 4 28 5 53 2 25 -2
150 -5 278 -5z m1105 -35 c188 -33 310 -71 465 -147 393 -194 650 -531 738
-970 85 -425 7 -869 -208 -1194 -194 -291 -512 -505 -873 -586 -205 -46 -249
-48 -888 -49 -672 0 -635 -4 -677 65 -20 32 -20 44 -18 1161 l3 1129 220 1
c121 1 284 2 363 3 l142 1 0 303 c0 167 3 307 8 311 4 5 135 6 292 3 247 -4
305 -8 433 -31z"/>
<path d="M4389 8528 c-2 -7 -3 -395 -1 -862 l3 -848 247 5 c280 5 378 19 500
70 145 62 241 141 323 265 118 180 165 438 124 677 -48 275 -246 522 -508 632
-133 56 -245 73 -480 73 -155 0 -206 -3 -208 -12z"/>
<path d="M7950 9108 c16 -46 47 -135 70 -198 22 -63 55 -153 71 -200 17 -47
40 -114 51 -150 11 -36 24 -69 28 -75 4 -5 33 -84 64 -175 31 -91 70 -203 87
-250 17 -47 39 -112 50 -145 11 -33 24 -69 29 -80 6 -11 25 -65 44 -120 52
-155 145 -418 155 -440 5 -11 33 -87 61 -170 29 -82 76 -217 105 -300 30 -82
80 -226 113 -320 67 -190 77 -216 99 -262 l15 -33 442 0 c351 1 445 3 459 14
15 12 46 83 82 191 7 22 37 105 65 185 29 80 61 171 71 202 10 32 25 71 34 88
l16 30 206 -2 207 -3 60 -87 60 -88 145 0 146 -1 20 -41 c28 -58 63 -81 134
-86 56 -4 60 -3 99 33 69 62 79 142 27 211 -37 48 -78 67 -135 62 -61 -6 -107
-39 -132 -95 l-19 -43 -133 0 -133 0 -59 90 -59 90 -212 0 c-117 0 -213 2
-213 4 0 3 16 50 36 105 l36 101 179 0 179 0 20 -43 c28 -59 72 -90 135 -94
135 -11 210 132 130 247 -31 44 -56 55 -126 53 -65 -1 -105 -25 -132 -79 l-23
-46 -172 -3 c-122 -2 -172 1 -171 9 0 6 17 58 37 116 l37 105 100 5 100 5 44
68 44 67 186 0 186 -1 45 -89 45 -90 98 2 99 3 20 -42 c72 -154 298 -110 298
58 0 87 -67 154 -154 154 -64 0 -115 -34 -142 -95 l-18 -40 -87 0 -87 0 -42
78 c-23 42 -47 82 -53 89 -9 9 -70 13 -212 14 l-200 2 -48 -72 -49 -71 -79 0
-79 0 15 38 c8 20 39 107 69 192 l53 155 211 3 210 2 12 -34 c13 -41 55 -80
104 -96 74 -24 162 26 186 107 34 112 -62 220 -175 199 -42 -8 -107 -63 -125
-106 l-12 -30 -194 0 c-107 0 -194 4 -194 9 0 5 39 118 86 252 161 454 192
544 238 674 105 294 107 304 96 325 -6 11 -19 24 -30 30 -12 6 -146 10 -359
10 l-341 0 -14 -22 c-12 -19 -204 -585 -319 -943 -61 -189 -79 -241 -87 -260
-5 -11 -54 -162 -111 -335 -153 -473 -168 -513 -190 -532 -25 -21 -62 -23 -77
-5 -19 24 -51 115 -177 502 -70 215 -164 503 -210 640 -178 537 -274 832 -284
870 -6 23 -20 51 -31 63 -21 22 -22 22 -400 22 l-379 0 29 -82z m3188 -1152
c33 -30 37 -40 37 -81 0 -41 -4 -51 -37 -81 -30 -27 -46 -34 -79 -34 -35 0
-47 6 -75 36 -27 28 -34 44 -34 76 0 34 7 47 39 79 52 52 95 54 149 5z m355
-450 c61 -25 84 -94 52 -156 -21 -41 -53 -60 -100 -60 -120 0 -158 160 -51
213 39 20 58 20 99 3z m-651 -255 c30 -26 33 -35 32 -82 0 -47 -4 -55 -37 -85
-59 -54 -124 -45 -169 23 -30 47 -22 99 25 151 32 35 106 31 149 -7z m374
-425 c30 -30 34 -40 34 -84 0 -45 -4 -53 -35 -81 -76 -67 -184 -22 -185 77 0
71 48 121 119 122 25 0 42 -9 67 -34z"/>
<path d="M8760 5763 c-59 -11 -187 -83 -229 -128 -81 -87 -141 -260 -141 -404
0 -143 48 -294 117 -372 57 -63 105 -94 197 -127 97 -35 251 -37 340 -4 147
54 224 153 242 313 l6 56 -70 11 c-103 17 -98 19 -111 -47 -15 -74 -58 -140
-112 -171 -34 -18 -57 -23 -113 -23 -40 0 -87 7 -107 16 -49 20 -116 82 -139
127 -31 60 -52 186 -45 263 19 205 99 315 235 325 86 6 126 -4 172 -46 44 -40
68 -85 68 -128 0 -25 2 -26 40 -20 22 3 64 14 93 24 48 16 52 19 49 46 -6 53
-44 138 -81 179 -22 25 -64 54 -111 76 -68 32 -84 35 -175 37 -55 1 -111 0
-125 -3z"/>
<path d="M6590 5665 l0 -86 148 2 147 1 3 -431 2 -432 93 3 92 3 3 428 2 427
150 0 150 0 0 85 0 85 -395 0 -395 0 0 -85z"/>
<path d="M7529 5273 c-1 -263 -2 -494 -3 -513 l-1 -35 53 0 c28 1 198 2 377 3
l326 2 -3 76 -3 76 -275 2 -275 1 -3 143 -3 142 241 0 240 0 0 24 c0 13 3 44
6 69 l7 47 -244 2 -244 3 0 135 0 135 273 3 272 2 0 80 0 80 -370 0 -370 0 -1
-477z"/>
<path d="M9452 5238 l3 -513 90 0 90 0 5 220 5 220 233 3 232 2 0 -219 0 -218
28 -5 c15 -3 43 -4 62 -3 19 1 50 2 68 3 l32 2 0 510 0 510 -95 0 -95 0 -2
-212 -3 -211 -230 0 -230 -1 -1 210 -1 209 -97 3 -96 3 2 -513z"/>
</g>
</svg>
